<svg version="1.1" viewBox="0 0 100 100" xmlns="http://www.w3.org/2000/svg">
   <g>
      <path d="m46 85c21.5 0 39-17.5 39-39s-17.5-39-39-39-39 17.5-39 39 17.5 39 39 39zm0-72c18.2 0 33 14.8 33 33s-14.8 33-33 33-33-14.8-33-33 14.8-33 33-33z" />
      <path d="m85 70c-6.1 0-11 4.9-11 11s4.9 11 11 11 11-4.9 11-11-4.9-11-11-11zm0 16c-2.8 0-5-2.2-5-5s2.2-5 5-5 5 2.2 5 5-2.2 5-5 5z" />
      <path d="m56.556 64.256c0.35703 0.5068 0.52028 1.2218 0.45101 1.9172-0.06927 0.6954-0.37105 1.3712-0.7996 1.7998-0.54481 0.54481-0.64263 0.58032-1.7353 1.024-0.68257 0.27717-1.403 0.49272-1.9625 0.65426-3.5641 1.0291-7.8801 1.2642-12.291 0.17319-3.2701-0.80885-6.2699-2.0519-9.071-4.2971-0.31699-0.25408-1.013-0.78589-1.6664-1.4256-0.86735-0.84913-1.2642-1.3872-1.4109-2.0727-0.24261-1.1338 0.06065-2.3418 1.0548-3.139 0.78048-0.62586 1.8562-0.89826 2.8498-0.55506 1.4285 0.49345 1.6014 1.456 3.6314 2.8214 2.7645 1.8595 5.852 2.8247 8.2841 3.0799 3.3325 0.34962 5.9132-0.05166 8.3445-0.99169 0.94158-0.36405 1.3842-0.59561 2.4605-0.3451 0.88913 0.20696 1.4417 0.76162 1.8607 1.3564z" />
   </g>
</svg>
